<svg xmlns="http://www.w3.org/2000/svg" version="1.1" width="25.5in" height="10.5in" viewBox = " 0 0 2295 945" >
<!-- Front--> 
<g transform="translate(22.5, 22.5) " > 
<polygon style="stroke:#000000; fill:none; stroke-width:0.9" points="0, 0 26.999999999999986, 0 26.999999999999986, 8.37 53.99999999999997, 8.37 53.99999999999997, 0 71.99999999999997, 0 71.99999999999997, 8.37 89.99999999999997, 8.37 89.99999999999997, 0 107.99999999999997, 0 107.99999999999997, 8.37 125.99999999999997, 8.37 125.99999999999997, 0 143.99999999999997, 0 143.99999999999997, 8.37 161.99999999999997, 8.37 161.99999999999997, 0 179.99999999999997, 0 179.99999999999997, 8.37 197.99999999999997, 8.37 197.99999999999997, 0 215.99999999999997, 0 215.99999999999997, 8.37 233.99999999999997, 8.37 233.99999999999997, 0 251.99999999999997, 0 251.99999999999997, 8.37 270, 8.37 270, 0 288, 0 288, 8.37 306, 8.37 306, 0 324, 0 324, 8.37 342, 8.37 342, 0 360, 0 360, 8.37 378, 8.37 378, 0 396, 0 396, 8.37 414, 8.37 414, 0 432, 0 432, 8.37 450, 8.37 450, 0 468, 0 468, 8.37 486, 8.37 486, 0 504, 0 504, 8.37 522, 8.37 522, 0 540, 0 540, 8.37 558, 8.37 558, 0 576, 0 576, 8.37 594, 8.37 594, 0 612, 0 612, 8.37 630, 8.37 630, 0 648, 0 648, 8.37 666, 8.37 666, 0 684, 0 684, 8.37 702, 8.37 702, 0 720, 0 720, 8.37 738, 8.37 738, 0 756, 0 756, 8.37 783, 8.37 783, 0 810, 0 810, 26.999999999999993 801.63, 26.999999999999993 801.63, 53.999999999999986 810, 53.999999999999986 810, 71.99999999999999 801.63, 71.99999999999999 801.63, 89.99999999999999 810, 89.99999999999999 810, 107.99999999999999 801.63, 107.99999999999999 801.63, 125.99999999999999 810, 125.99999999999999 810, 144 801.63, 144 801.63, 162 810, 162 810, 180 801.63, 180 801.63, 198 810, 198 810, 216 801.63, 216 801.63, 242.99999999999997 810, 242.99999999999997 810, 270 783, 270 783, 261.63 756, 261.63 756, 270 738, 270 738, 261.63 720, 261.63 720, 270 702, 270 702, 261.63 684, 261.63 684, 270 666, 270 666, 261.63 648, 261.63 648, 270 630, 270 630, 261.63 612, 261.63 612, 270 594, 270 594, 261.63 576, 261.63 576, 270 558, 270 558, 261.63 540, 261.63 540, 270 522, 270 522, 261.63 504, 261.63 504, 270 486, 270 486, 261.63 468, 261.63 468, 270 450, 270 450, 261.63 432, 261.63 432, 270 414, 270 414, 261.63 396, 261.63 396, 270 378, 270 378, 261.63 360, 261.63 360, 270 342, 270 342, 261.63 324, 261.63 324, 270 306, 270 306, 261.63 288, 261.63 288, 270 270, 270 270, 261.63 251.99999999999997, 261.63 251.99999999999997, 270 233.99999999999997, 270 233.99999999999997, 261.63 215.99999999999997, 261.63 215.99999999999997, 270 197.99999999999997, 270 197.99999999999997, 261.63 179.99999999999997, 261.63 179.99999999999997, 270 161.99999999999997, 270 161.99999999999997, 261.63 143.99999999999997, 261.63 143.99999999999997, 270 125.99999999999997, 270 125.99999999999997, 261.63 107.99999999999997, 261.63 107.99999999999997, 270 89.99999999999997, 270 89.99999999999997, 261.63 71.99999999999997, 261.63 71.99999999999997, 270 53.99999999999997, 270 53.99999999999997, 261.63 26.999999999999986, 261.63 26.999999999999986, 270 0, 270 0, 242.99999999999997 8.37, 242.99999999999997 8.37, 216 0, 216 0, 198 8.37, 198 8.37, 180 0, 180 0, 162 8.37, 162 8.37, 144 0, 144 0, 125.99999999999999 8.37, 125.99999999999999 8.37, 107.99999999999999 0, 107.99999999999999 0, 89.99999999999999 8.37, 89.99999999999999 8.37, 71.99999999999999 0, 71.99999999999999 0, 53.999999999999986 8.37, 53.999999999999986 8.37, 26.999999999999993 0, 26.999999999999993 "/> 
</g>
<!-- Back--> 
<g transform="translate(832.5, 22.5) " > 
<polygon style="stroke:#000000; fill:none; stroke-width:0.9" points="0, 0 26.999999999999986, 0 26.999999999999986, 8.37 53.99999999999997, 8.37 53.99999999999997, 0 71.99999999999997, 0 71.99999999999997, 8.37 89.99999999999997, 8.37 89.99999999999997, 0 107.99999999999997, 0 107.99999999999997, 8.37 125.99999999999997, 8.37 125.99999999999997, 0 143.99999999999997, 0 143.99999999999997, 8.37 161.99999999999997, 8.37 161.99999999999997, 0 179.99999999999997, 0 179.99999999999997, 8.37 197.99999999999997, 8.37 197.99999999999997, 0 215.99999999999997, 0 215.99999999999997, 8.37 233.99999999999997, 8.37 233.99999999999997, 0 251.99999999999997, 0 251.99999999999997, 8.37 270, 8.37 270, 0 288, 0 288, 8.37 306, 8.37 306, 0 324, 0 324, 8.37 342, 8.37 342, 0 360, 0 360, 8.37 378, 8.37 378, 0 396, 0 396, 8.37 414, 8.37 414, 0 432, 0 432, 8.37 450, 8.37 450, 0 468, 0 468, 8.37 486, 8.37 486, 0 504, 0 504, 8.37 522, 8.37 522, 0 540, 0 540, 8.37 558, 8.37 558, 0 576, 0 576, 8.37 594, 8.37 594, 0 612, 0 612, 8.37 630, 8.37 630, 0 648, 0 648, 8.37 666, 8.37 666, 0 684, 0 684, 8.37 702, 8.37 702, 0 720, 0 720, 8.37 738, 8.37 738, 0 756, 0 756, 8.37 783, 8.37 783, 0 810, 0 810, 26.999999999999993 801.63, 26.999999999999993 801.63, 53.999999999999986 810, 53.999999999999986 810, 71.99999999999999 801.63, 71.99999999999999 801.63, 89.99999999999999 810, 89.99999999999999 810, 107.99999999999999 801.63, 107.99999999999999 801.63, 125.99999999999999 810, 125.99999999999999 810, 144 801.63, 144 801.63, 162 810, 162 810, 180 801.63, 180 801.63, 198 810, 198 810, 216 801.63, 216 801.63, 242.99999999999997 810, 242.99999999999997 810, 270 783, 270 783, 261.63 756, 261.63 756, 270 738, 270 738, 261.63 720, 261.63 720, 270 702, 270 702, 261.63 684, 261.63 684, 270 666, 270 666, 261.63 648, 261.63 648, 270 630, 270 630, 261.63 612, 261.63 612, 270 594, 270 594, 261.63 576, 261.63 576, 270 558, 270 558, 261.63 540, 261.63 540, 270 522, 270 522, 261.63 504, 261.63 504, 270 486, 270 486, 261.63 468, 261.63 468, 270 450, 270 450, 261.63 432, 261.63 432, 270 414, 270 414, 261.63 396, 261.63 396, 270 378, 270 378, 261.63 360, 261.63 360, 270 342, 270 342, 261.63 324, 261.63 324, 270 306, 270 306, 261.63 288, 261.63 288, 270 270, 270 270, 261.63 251.99999999999997, 261.63 251.99999999999997, 270 233.99999999999997, 270 233.99999999999997, 261.63 215.99999999999997, 261.63 215.99999999999997, 270 197.99999999999997, 270 197.99999999999997, 261.63 179.99999999999997, 261.63 179.99999999999997, 270 161.99999999999997, 270 161.99999999999997, 261.63 143.99999999999997, 261.63 143.99999999999997, 270 125.99999999999997, 270 125.99999999999997, 261.63 107.99999999999997, 261.63 107.99999999999997, 270 89.99999999999997, 270 89.99999999999997, 261.63 71.99999999999997, 261.63 71.99999999999997, 270 53.99999999999997, 270 53.99999999999997, 261.63 26.999999999999986, 261.63 26.999999999999986, 270 0, 270 0, 242.99999999999997 8.37, 242.99999999999997 8.37, 216 0, 216 0, 198 8.37, 198 8.37, 180 0, 180 0, 162 8.37, 162 8.37, 144 0, 144 0, 125.99999999999999 8.37, 125.99999999999999 8.37, 107.99999999999999 0, 107.99999999999999 0, 89.99999999999999 8.37, 89.99999999999999 8.37, 71.99999999999999 0, 71.99999999999999 0, 53.999999999999986 8.37, 53.999999999999986 8.37, 26.999999999999993 0, 26.999999999999993 "/> 
</g>
<!-- Left--> 
<g transform="translate(1642.5, 22.5) " > 
<polygon style="stroke:#000000; fill:none; stroke-width:0.9" points="8.37, 0 26.999999999999986, 0 26.999999999999986, 8.37 53.99999999999997, 8.37 53.99999999999997, 0 71.99999999999997, 0 71.99999999999997, 8.37 89.99999999999997, 8.37 89.99999999999997, 0 107.99999999999997, 0 107.99999999999997, 8.37 125.99999999999997, 8.37 125.99999999999997, 0 143.99999999999997, 0 143.99999999999997, 8.37 161.99999999999997, 8.37 161.99999999999997, 0 179.99999999999997, 0 179.99999999999997, 8.37 197.99999999999997, 8.37 197.99999999999997, 0 215.99999999999997, 0 215.99999999999997, 8.37 233.99999999999997, 8.37 233.99999999999997, 0 251.99999999999997, 0 251.99999999999997, 8.37 270, 8.37 270, 0 288, 0 288, 8.37 306, 8.37 306, 0 324, 0 324, 8.37 342, 8.37 342, 0 360, 0 360, 8.37 378, 8.37 378, 0 396, 0 396, 8.37 414, 8.37 414, 0 432, 0 432, 8.37 450, 8.37 450, 0 468, 0 468, 8.37 486, 8.37 486, 0 504, 0 504, 8.37 522, 8.37 522, 0 540, 0 540, 8.37 558, 8.37 558, 0 576, 0 576, 8.37 603, 8.37 603, 0 621.63, 0 621.63, 26.999999999999993 630, 26.999999999999993 630, 53.999999999999986 621.63, 53.999999999999986 621.63, 71.99999999999999 630, 71.99999999999999 630, 89.99999999999999 621.63, 89.99999999999999 621.63, 107.99999999999999 630, 107.99999999999999 630, 125.99999999999999 621.63, 125.99999999999999 621.63, 144 630, 144 630, 162 621.63, 162 621.63, 180 630, 180 630, 198 621.63, 198 621.63, 216 630, 216 630, 242.99999999999997 621.63, 242.99999999999997 621.63, 270 603, 270 603, 261.63 576, 261.63 576, 270 558, 270 558, 261.63 540, 261.63 540, 270 522, 270 522, 261.63 504, 261.63 504, 270 486, 270 486, 261.63 468, 261.63 468, 270 450, 270 450, 261.63 432, 261.63 432, 270 414, 270 414, 261.63 396, 261.63 396, 270 378, 270 378, 261.63 360, 261.63 360, 270 342, 270 342, 261.63 324, 261.63 324, 270 306, 270 306, 261.63 288, 261.63 288, 270 270, 270 270, 261.63 251.99999999999997, 261.63 251.99999999999997, 270 233.99999999999997, 270 233.99999999999997, 261.63 215.99999999999997, 261.63 215.99999999999997, 270 197.99999999999997, 270 197.99999999999997, 261.63 179.99999999999997, 261.63 179.99999999999997, 270 161.99999999999997, 270 161.99999999999997, 261.63 143.99999999999997, 261.63 143.99999999999997, 270 125.99999999999997, 270 125.99999999999997, 261.63 107.99999999999997, 261.63 107.99999999999997, 270 89.99999999999997, 270 89.99999999999997, 261.63 71.99999999999997, 261.63 71.99999999999997, 270 53.99999999999997, 270 53.99999999999997, 261.63 26.999999999999986, 261.63 26.999999999999986, 270 8.37, 270 8.37, 242.99999999999997 0, 242.99999999999997 0, 216 8.37, 216 8.37, 198 0, 198 0, 180 8.37, 180 8.37, 162 0, 162 0, 144 8.37, 144 8.37, 125.99999999999999 0, 125.99999999999999 0, 107.99999999999999 8.37, 107.99999999999999 8.37, 89.99999999999999 0, 89.99999999999999 0, 71.99999999999999 8.37, 71.99999999999999 8.37, 53.999999999999986 0, 53.999999999999986 0, 26.999999999999993 8.37, 26.999999999999993 "/> 
</g>
<!-- Right--> 
<g transform="translate(1642.5, 292.5) " > 
<polygon style="stroke:#000000; fill:none; stroke-width:0.9" points="8.37, 0 26.999999999999986, 0 26.999999999999986, 8.37 53.99999999999997, 8.37 53.99999999999997, 0 71.99999999999997, 0 71.99999999999997, 8.37 89.99999999999997, 8.37 89.99999999999997, 0 107.99999999999997, 0 107.99999999999997, 8.37 125.99999999999997, 8.37 125.99999999999997, 0 143.99999999999997, 0 143.99999999999997, 8.37 161.99999999999997, 8.37 161.99999999999997, 0 179.99999999999997, 0 179.99999999999997, 8.37 197.99999999999997, 8.37 197.99999999999997, 0 215.99999999999997, 0 215.99999999999997, 8.37 233.99999999999997, 8.37 233.99999999999997, 0 251.99999999999997, 0 251.99999999999997, 8.37 270, 8.37 270, 0 288, 0 288, 8.37 306, 8.37 306, 0 324, 0 324, 8.37 342, 8.37 342, 0 360, 0 360, 8.37 378, 8.37 378, 0 396, 0 396, 8.37 414, 8.37 414, 0 432, 0 432, 8.37 450, 8.37 450, 0 468, 0 468, 8.37 486, 8.37 486, 0 504, 0 504, 8.37 522, 8.37 522, 0 540, 0 540, 8.37 558, 8.37 558, 0 576, 0 576, 8.37 603, 8.37 603, 0 621.63, 0 621.63, 26.999999999999993 630, 26.999999999999993 630, 53.999999999999986 621.63, 53.999999999999986 621.63, 71.99999999999999 630, 71.99999999999999 630, 89.99999999999999 621.63, 89.99999999999999 621.63, 107.99999999999999 630, 107.99999999999999 630, 125.99999999999999 621.63, 125.99999999999999 621.63, 144 630, 144 630, 162 621.63, 162 621.63, 180 630, 180 630, 198 621.63, 198 621.63, 216 630, 216 630, 242.99999999999997 621.63, 242.99999999999997 621.63, 270 603, 270 603, 261.63 576, 261.63 576, 270 558, 270 558, 261.63 540, 261.63 540, 270 522, 270 522, 261.63 504, 261.63 504, 270 486, 270 486, 261.63 468, 261.63 468, 270 450, 270 450, 261.63 432, 261.63 432, 270 414, 270 414, 261.63 396, 261.63 396, 270 378, 270 378, 261.63 360, 261.63 360, 270 342, 270 342, 261.63 324, 261.63 324, 270 306, 270 306, 261.63 288, 261.63 288, 270 270, 270 270, 261.63 251.99999999999997, 261.63 251.99999999999997, 270 233.99999999999997, 270 233.99999999999997, 261.63 215.99999999999997, 261.63 215.99999999999997, 270 197.99999999999997, 270 197.99999999999997, 261.63 179.99999999999997, 261.63 179.99999999999997, 270 161.99999999999997, 270 161.99999999999997, 261.63 143.99999999999997, 261.63 143.99999999999997, 270 125.99999999999997, 270 125.99999999999997, 261.63 107.99999999999997, 261.63 107.99999999999997, 270 89.99999999999997, 270 89.99999999999997, 261.63 71.99999999999997, 261.63 71.99999999999997, 270 53.99999999999997, 270 53.99999999999997, 261.63 26.999999999999986, 261.63 26.999999999999986, 270 8.37, 270 8.37, 242.99999999999997 0, 242.99999999999997 0, 216 8.37, 216 8.37, 198 0, 198 0, 180 8.37, 180 8.37, 162 0, 162 0, 144 8.37, 144 8.37, 125.99999999999999 0, 125.99999999999999 0, 107.99999999999999 8.37, 107.99999999999999 8.37, 89.99999999999999 0, 89.99999999999999 0, 71.99999999999999 8.37, 71.99999999999999 8.37, 53.999999999999986 0, 53.999999999999986 0, 26.999999999999993 8.37, 26.999999999999993 "/> 
</g>
<!-- Top--> 
<g transform="translate(22.5, 292.5) " > 
<polygon style="stroke:#000000; fill:none; stroke-width:0.9" points="8.37, 8.37 26.999999999999986, 8.37 26.999999999999986, 0 53.99999999999997, 0 53.99999999999997, 8.37 71.99999999999997, 8.37 71.99999999999997, 0 89.99999999999997, 0 89.99999999999997, 8.37 107.99999999999997, 8.37 107.99999999999997, 0 125.99999999999997, 0 125.99999999999997, 8.37 143.99999999999997, 8.37 143.99999999999997, 0 161.99999999999997, 0 161.99999999999997, 8.37 179.99999999999997, 8.37 179.99999999999997, 0 197.99999999999997, 0 197.99999999999997, 8.37 215.99999999999997, 8.37 215.99999999999997, 0 233.99999999999997, 0 233.99999999999997, 8.37 251.99999999999997, 8.37 251.99999999999997, 0 270, 0 270, 8.37 288, 8.37 288, 0 306, 0 306, 8.37 324, 8.37 324, 0 342, 0 342, 8.37 360, 8.37 360, 0 378, 0 378, 8.37 396, 8.37 396, 0 414, 0 414, 8.37 432, 8.37 432, 0 450, 0 450, 8.37 468, 8.37 468, 0 486, 0 486, 8.37 504, 8.37 504, 0 522, 0 522, 8.37 540, 8.37 540, 0 558, 0 558, 8.37 576, 8.37 576, 0 594, 0 594, 8.37 612, 8.37 612, 0 630, 0 630, 8.37 648, 8.37 648, 0 666, 0 666, 8.37 684, 8.37 684, 0 702, 0 702, 8.37 720, 8.37 720, 0 738, 0 738, 8.37 756, 8.37 756, 0 783, 0 783, 8.37 801.63, 8.37 801.63, 26.999999999999986 810, 26.999999999999986 810, 53.99999999999997 801.63, 53.99999999999997 801.63, 71.99999999999997 810, 71.99999999999997 810, 89.99999999999997 801.63, 89.99999999999997 801.63, 107.99999999999997 810, 107.99999999999997 810, 125.99999999999997 801.63, 125.99999999999997 801.63, 143.99999999999997 810, 143.99999999999997 810, 161.99999999999997 801.63, 161.99999999999997 801.63, 179.99999999999997 810, 179.99999999999997 810, 197.99999999999997 801.63, 197.99999999999997 801.63, 215.99999999999997 810, 215.99999999999997 810, 233.99999999999997 801.63, 233.99999999999997 801.63, 251.99999999999997 810, 251.99999999999997 810, 270 801.63, 270 801.63, 288 810, 288 810, 306 801.63, 306 801.63, 324 810, 324 810, 342 801.63, 342 801.63, 360 810, 360 810, 378 801.63, 378 801.63, 396 810, 396 810, 414 801.63, 414 801.63, 432 810, 432 810, 450 801.63, 450 801.63, 468 810, 468 810, 486 801.63, 486 801.63, 504 810, 504 810, 522 801.63, 522 801.63, 540 810, 540 810, 558 801.63, 558 801.63, 576 810, 576 810, 603 801.63, 603 801.63, 621.63 783, 621.63 783, 630 756, 630 756, 621.63 738, 621.63 738, 630 720, 630 720, 621.63 702, 621.63 702, 630 684, 630 684, 621.63 666, 621.63 666, 630 648, 630 648, 621.63 630, 621.63 630, 630 612, 630 612, 621.63 594, 621.63 594, 630 576, 630 576, 621.63 558, 621.63 558, 630 540, 630 540, 621.63 522, 621.63 522, 630 504, 630 504, 621.63 486, 621.63 486, 630 468, 630 468, 621.63 450, 621.63 450, 630 432, 630 432, 621.63 414, 621.63 414, 630 396, 630 396, 621.63 378, 621.63 378, 630 360, 630 360, 621.63 342, 621.63 342, 630 324, 630 324, 621.63 306, 621.63 306, 630 288, 630 288, 621.63 270, 621.63 270, 630 251.99999999999997, 630 251.99999999999997, 621.63 233.99999999999997, 621.63 233.99999999999997, 630 215.99999999999997, 630 215.99999999999997, 621.63 197.99999999999997, 621.63 197.99999999999997, 630 179.99999999999997, 630 179.99999999999997, 621.63 161.99999999999997, 621.63 161.99999999999997, 630 143.99999999999997, 630 143.99999999999997, 621.63 125.99999999999997, 621.63 125.99999999999997, 630 107.99999999999997, 630 107.99999999999997, 621.63 89.99999999999997, 621.63 89.99999999999997, 630 71.99999999999997, 630 71.99999999999997, 621.63 53.99999999999997, 621.63 53.99999999999997, 630 26.999999999999986, 630 26.999999999999986, 621.63 8.37, 621.63 8.37, 603 0, 603 0, 576 8.37, 576 8.37, 558 0, 558 0, 540 8.37, 540 8.37, 522 0, 522 0, 504 8.37, 504 8.37, 486 0, 486 0, 468 8.37, 468 8.37, 450 0, 450 0, 432 8.37, 432 8.37, 414 0, 414 0, 396 8.37, 396 8.37, 378 0, 378 0, 360 8.37, 360 8.37, 342 0, 342 0, 324 8.37, 324 8.37, 306 0, 306 0, 288 8.37, 288 8.37, 270 0, 270 0, 251.99999999999997 8.37, 251.99999999999997 8.37, 233.99999999999997 0, 233.99999999999997 0, 215.99999999999997 8.37, 215.99999999999997 8.37, 197.99999999999997 0, 197.99999999999997 0, 179.99999999999997 8.37, 179.99999999999997 8.37, 161.99999999999997 0, 161.99999999999997 0, 143.99999999999997 8.37, 143.99999999999997 8.37, 125.99999999999997 0, 125.99999999999997 0, 107.99999999999997 8.37, 107.99999999999997 8.37, 89.99999999999997 0, 89.99999999999997 0, 71.99999999999997 8.37, 71.99999999999997 8.37, 53.99999999999997 0, 53.99999999999997 0, 26.999999999999986 8.37, 26.999999999999986 "/> 
</g>
<!-- Bottom--> 
<g transform="translate(832.5, 292.5) " > 
<polygon style="stroke:#000000; fill:none; stroke-width:0.9" points="8.37, 8.37 26.999999999999986, 8.37 26.999999999999986, 0 53.99999999999997, 0 53.99999999999997, 8.37 71.99999999999997, 8.37 71.99999999999997, 0 89.99999999999997, 0 89.99999999999997, 8.37 107.99999999999997, 8.37 107.99999999999997, 0 125.99999999999997, 0 125.99999999999997, 8.37 143.99999999999997, 8.37 143.99999999999997, 0 161.99999999999997, 0 161.99999999999997, 8.37 179.99999999999997, 8.37 179.99999999999997, 0 197.99999999999997, 0 197.99999999999997, 8.37 215.99999999999997, 8.37 215.99999999999997, 0 233.99999999999997, 0 233.99999999999997, 8.37 251.99999999999997, 8.37 251.99999999999997, 0 270, 0 270, 8.37 288, 8.37 288, 0 306, 0 306, 8.37 324, 8.37 324, 0 342, 0 342, 8.37 360, 8.37 360, 0 378, 0 378, 8.37 396, 8.37 396, 0 414, 0 414, 8.37 432, 8.37 432, 0 450, 0 450, 8.37 468, 8.37 468, 0 486, 0 486, 8.37 504, 8.37 504, 0 522, 0 522, 8.37 540, 8.37 540, 0 558, 0 558, 8.37 576, 8.37 576, 0 594, 0 594, 8.37 612, 8.37 612, 0 630, 0 630, 8.37 648, 8.37 648, 0 666, 0 666, 8.37 684, 8.37 684, 0 702, 0 702, 8.37 720, 8.37 720, 0 738, 0 738, 8.37 756, 8.37 756, 0 783, 0 783, 8.37 801.63, 8.37 801.63, 26.999999999999986 810, 26.999999999999986 810, 53.99999999999997 801.63, 53.99999999999997 801.63, 71.99999999999997 810, 71.99999999999997 810, 89.99999999999997 801.63, 89.99999999999997 801.63, 107.99999999999997 810, 107.99999999999997 810, 125.99999999999997 801.63, 125.99999999999997 801.63, 143.99999999999997 810, 143.99999999999997 810, 161.99999999999997 801.63, 161.99999999999997 801.63, 179.99999999999997 810, 179.99999999999997 810, 197.99999999999997 801.63, 197.99999999999997 801.63, 215.99999999999997 810, 215.99999999999997 810, 233.99999999999997 801.63, 233.99999999999997 801.63, 251.99999999999997 810, 251.99999999999997 810, 270 801.63, 270 801.63, 288 810, 288 810, 306 801.63, 306 801.63, 324 810, 324 810, 342 801.63, 342 801.63, 360 810, 360 810, 378 801.63, 378 801.63, 396 810, 396 810, 414 801.63, 414 801.63, 432 810, 432 810, 450 801.63, 450 801.63, 468 810, 468 810, 486 801.63, 486 801.63, 504 810, 504 810, 522 801.63, 522 801.63, 540 810, 540 810, 558 801.63, 558 801.63, 576 810, 576 810, 603 801.63, 603 801.63, 621.63 783, 621.63 783, 630 756, 630 756, 621.63 738, 621.63 738, 630 720, 630 720, 621.63 702, 621.63 702, 630 684, 630 684, 621.63 666, 621.63 666, 630 648, 630 648, 621.63 630, 621.63 630, 630 612, 630 612, 621.63 594, 621.63 594, 630 576, 630 576, 621.63 558, 621.63 558, 630 540, 630 540, 621.63 522, 621.63 522, 630 504, 630 504, 621.63 486, 621.63 486, 630 468, 630 468, 621.63 450, 621.63 450, 630 432, 630 432, 621.63 414, 621.63 414, 630 396, 630 396, 621.63 378, 621.63 378, 630 360, 630 360, 621.63 342, 621.63 342, 630 324, 630 324, 621.63 306, 621.63 306, 630 288, 630 288, 621.63 270, 621.63 270, 630 251.99999999999997, 630 251.99999999999997, 621.63 233.99999999999997, 621.63 233.99999999999997, 630 215.99999999999997, 630 215.99999999999997, 621.63 197.99999999999997, 621.63 197.99999999999997, 630 179.99999999999997, 630 179.99999999999997, 621.63 161.99999999999997, 621.63 161.99999999999997, 630 143.99999999999997, 630 143.99999999999997, 621.63 125.99999999999997, 621.63 125.99999999999997, 630 107.99999999999997, 630 107.99999999999997, 621.63 89.99999999999997, 621.63 89.99999999999997, 630 71.99999999999997, 630 71.99999999999997, 621.63 53.99999999999997, 621.63 53.99999999999997, 630 26.999999999999986, 630 26.999999999999986, 621.63 8.37, 621.63 8.37, 603 0, 603 0, 576 8.37, 576 8.37, 558 0, 558 0, 540 8.37, 540 8.37, 522 0, 522 0, 504 8.37, 504 8.37, 486 0, 486 0, 468 8.37, 468 8.37, 450 0, 450 0, 432 8.37, 432 8.37, 414 0, 414 0, 396 8.37, 396 8.37, 378 0, 378 0, 360 8.37, 360 8.37, 342 0, 342 0, 324 8.37, 324 8.37, 306 0, 306 0, 288 8.37, 288 8.37, 270 0, 270 0, 251.99999999999997 8.37, 251.99999999999997 8.37, 233.99999999999997 0, 233.99999999999997 0, 215.99999999999997 8.37, 215.99999999999997 8.37, 197.99999999999997 0, 197.99999999999997 0, 179.99999999999997 8.37, 179.99999999999997 8.37, 161.99999999999997 0, 161.99999999999997 0, 143.99999999999997 8.37, 143.99999999999997 8.37, 125.99999999999997 0, 125.99999999999997 0, 107.99999999999997 8.37, 107.99999999999997 8.37, 89.99999999999997 0, 89.99999999999997 0, 71.99999999999997 8.37, 71.99999999999997 8.37, 53.99999999999997 0, 53.99999999999997 0, 26.999999999999986 8.37, 26.999999999999986 "/> 
</g></svg>